<svg width="32" height="32" viewBox="0 0 32 32" fill="none" xmlns="http://www.w3.org/2000/svg">
<g clip-path="url(#clip0_15_24)">
<path d="M16 2.496C19.714 2.496 23.052 3.778 25.3 6.084C27.1497 6.32456 28.8947 7.07992 30.336 8.264C27.814 2.964 22.59 0 16 0C9.49999 0 4.23999 2.96 1.68799 8.244C3.00946 7.16543 4.58583 6.44439 6.26599 6.15C8.47199 3.744 11.948 2.496 16 2.496Z" fill="#8A8A8A"/>
<path d="M24 24C21.9189 24.0024 19.9194 23.1914 18.428 21.74L18.424 21.736C18.2516 21.6065 18.0667 21.4946 17.872 21.402C17.2858 21.1299 16.6462 20.9926 16 21C15.172 21 14.542 21.206 14.13 21.402C13.9346 21.4945 13.749 21.6064 13.576 21.736L13.572 21.74C12.6316 22.6529 11.4814 23.3208 10.2223 23.685C8.96334 24.0491 7.63414 24.0984 6.35163 23.8284C5.06912 23.5585 3.87258 22.9775 2.86722 22.1367C1.86185 21.2959 1.07846 20.221 0.585925 19.0064C0.0933878 17.7919 -0.0932082 16.4749 0.0425433 15.1714C0.178295 13.8678 0.632236 12.6176 1.36445 11.5306C2.09667 10.4435 3.08473 9.55309 4.24177 8.93747C5.3988 8.32185 6.68937 7.99992 7.99998 8H24C26.1217 8 28.1565 8.84285 29.6568 10.3431C31.1571 11.8434 32 13.8783 32 16C32 18.1217 31.1571 20.1566 29.6568 21.6569C28.1565 23.1571 26.1217 24 24 24Z" fill="#8A8A8A"/>
</g>
<defs>
<clipPath id="clip0_15_24">
<rect width="32" height="32" fill="white"/>
</clipPath>
</defs>
</svg>
