<svg width="32" height="32" viewBox="0 0 32 32" fill="none" xmlns="http://www.w3.org/2000/svg">
<path d="M29.125 1H2.875C1.9375 1 1 1.9375 1 2.875V23.969C1 24.9065 1.9375 25.844 2.875 25.844H12.25V27.719C12.25 29.021 10.561 29.594 8.5 29.594V31H23.5V29.5935C21.4385 29.5935 19.75 29.0205 19.75 27.7185V25.8435H29.125C30.0625 25.8435 31 24.906 31 23.9685V2.875C31 1.9375 30.0625 1 29.125 1ZM30 23.969C30 24.3535 29.509 24.844 29.125 24.844H2.875C2.4905 24.844 2 24.3535 2 23.969V22.094H30V23.969Z" fill="#8A8A8A"/>
<path d="M16 24.438C16.259 24.438 16.469 24.228 16.469 23.969C16.469 23.71 16.259 23.5 16 23.5C15.741 23.5 15.531 23.71 15.531 23.969C15.531 24.228 15.741 24.438 16 24.438Z" fill="#8A8A8A"/>
</svg>
